<?xml version="1.0" standalone="no"?>
<!DOCTYPE svg PUBLIC "-//W3C//DTD SVG 1.1//EN" "http://www.w3.org/Graphics/SVG/1.1/DTD/svg11.dtd" >
<svg xmlns="http://www.w3.org/2000/svg">
<metadata></metadata>
<defs>
<font id="soup_of_justicesoupofjustice" horiz-adv-x="798" >
<font-face units-per-em="2048" ascent="1536" descent="-512" />
<missing-glyph horiz-adv-x="425" />
<glyph horiz-adv-x="0" />
<glyph unicode="&#xd;" horiz-adv-x="425" />
<glyph unicode=" "  horiz-adv-x="425" />
<glyph unicode="&#x09;" horiz-adv-x="425" />
<glyph unicode="&#xa0;" horiz-adv-x="425" />
<glyph unicode="!" horiz-adv-x="618" d="M102 166q0 -86 51.5 -129t137.5 -43q43 0 82 22.5t68.5 57.5t48 79t18.5 87t-18.5 74.5t-48 52t-68.5 30t-82 9.5t-78 -22t-59.5 -55.5t-38 -76.5t-13.5 -86zM115 1311l405 45l-24 -815l-379 -6z" />
<glyph unicode="&#x22;" horiz-adv-x="878" d="M66 1311l344 45l-25 -516l-268 -6zM455 784l24 516l301 -24l-24 -422z" />
<glyph unicode="'" horiz-adv-x="458" d="M66 1311l344 45l-25 -516l-268 -6z" />
<glyph unicode="(" horiz-adv-x="862" d="M59 641q-4 172 34 334t116 282.5t195.5 183t275.5 34.5l78 -351q-86 -16 -147.5 -92t-94.5 -182.5t-33 -231t36 -235.5t112 -196t196 -111l-63 -303q-174 -20 -304 48t-217 193t-133.5 290t-50.5 337z" />
<glyph unicode=")" horiz-adv-x="862" d="M59 1176l64 303q174 20 304 -48.5t217 -193.5t133 -290t50 -337t-33.5 -333.5t-115.5 -282.5t-195.5 -183.5t-275.5 -33.5l-78 350q86 14 147.5 91t94 183.5t32.5 231.5t-35.5 235.5t-111.5 194.5t-197 113z" />
<glyph unicode="+" horiz-adv-x="1009" d="M41 770l270 4l2 240l379 35l4 -269l236 4l-31 -405l-196 2l6 -246l-406 31l2 221l-231 4z" />
<glyph unicode="," horiz-adv-x="565" d="M102 166q0 43 13.5 86t38 76.5t59.5 55.5t78 22t82 -9.5t68.5 -30t48 -52t18.5 -74.5q0 -37 -12 -74q-20 -53 -51 -103.5t-69 -94.5t-82 -74.5t-89 -45.5q27 86 35 150q-63 10 -100.5 53t-37.5 115z" />
<glyph unicode="-" d="M147 766l521 18l-31 -405l-455 8z" />
<glyph unicode="." horiz-adv-x="626" d="M102 166q0 43 13.5 86t38 76.5t59.5 55.5t78 22t82 -9.5t68.5 -30t48 -52t18.5 -74.5t-18.5 -87t-48 -79t-68.5 -57.5t-82 -22.5q-86 0 -137.5 43t-51.5 129z" />
<glyph unicode="0" horiz-adv-x="1083" d="M27 612q-12 129 10 246q8 49 25.5 101.5t46 101.5t69.5 92t98 74q150 86 266.5 95t205 -31t148.5 -115.5t97 -155.5q29 -82 43 -184q12 -88 10 -209t-34 -267q-18 -84 -45 -136t-52.5 -80.5t-34.5 -34.5l-28 -17q-45 -23 -87 -48.5t-96.5 -40.5t-128 -12t-184.5 38 q-57 18 -101 52t-78 79t-58.5 95t-40.5 101q-39 117 -51 256zM385 637q-4 -72 7 -115t31.5 -66.5t49.5 -30.5t62 -7q33 4 56 16t38.5 39t25 73t13.5 118q2 53 -9.5 88.5t-33 57t-50 30t-59.5 6.5q-43 -10 -83 -58.5t-48 -150.5z" />
<glyph unicode="1" horiz-adv-x="587" d="M51 6l74 1243l373 23l6 -1266h-453z" />
<glyph unicode="2" horiz-adv-x="1011" d="M51 1206q129 43 252 66q51 8 106.5 14t108.5 5t100.5 -11t83.5 -33q63 -41 100.5 -90t53.5 -99t19.5 -98.5t-1 -84t-10.5 -56t-6 -16.5l-117 -430l215 12l-47 -379l-848 8l240 555q53 104 60.5 165t-14 89.5t-63.5 32.5t-86 -4t-82 -19.5t-50 -13.5z" />
<glyph unicode="3" horiz-adv-x="929" d="M35 1188q143 45 274 67q55 8 114.5 12.5t115 -0.5t104.5 -20.5t86 -46.5q20 -16 45 -54t46.5 -88t33.5 -108.5t8 -118t-30.5 -113.5t-83.5 -95q45 -12 87 -68.5t57 -137.5t-10.5 -175.5t-115.5 -182.5q-31 -31 -77 -50t-100 -31.5t-112.5 -17.5t-116.5 -5 q-133 -2 -282 16l28 361q51 -14 101.5 -27.5t88.5 -14.5t62.5 12t24.5 50q2 74 -59.5 89.5t-171.5 -1.5l-9 301q113 14 157 51t31.5 67t-73.5 39t-160 -30z" />
<glyph unicode="4" horiz-adv-x="1007" d="M35 365l57 870l361 -23l-37 -481l153 6l23 492l301 -4l45 -1221l-377 4l17 342z" />
<glyph unicode="5" horiz-adv-x="1026" d="M76 59l14 213q68 -23 133 -32q55 -10 115.5 -9.5t103.5 25.5q63 49 61.5 98t-48.5 90t-129 66t-179 25l17 679l719 21q2 -102 4 -182q0 -35 1 -67t1 -57.5t-1 -40.5l-1 -14q-2 2 -53.5 4.5t-112.5 6.5q-72 4 -162 8l-8 -186q96 -6 161.5 -31t107.5 -67t65.5 -97 t36.5 -123q0 -59 -17 -113q-14 -47 -44 -97t-83 -87q-74 -53 -155.5 -76.5t-162.5 -28.5t-152.5 3t-126 22.5t-83 28.5t-22.5 18z" />
<glyph unicode="6" horiz-adv-x="997" d="M23 475q-4 59 0.5 149.5t27.5 217.5q31 129 92 227q27 43 62 82t82 69.5t105.5 47t129.5 14.5q133 -6 214 -50t126 -95.5t63.5 -94.5t28.5 -47l-184 -141q-29 29 -80 49.5t-104.5 27.5t-99.5 -4.5t-66 -47.5l-8 -103q47 37 110.5 44t128 -9t124 -55t95.5 -97 q35 -49 54 -108q16 -51 18 -121t-29 -156q-16 -49 -43.5 -91t-53 -72.5t-46.5 -48.5l-20 -17q-43 -12 -74 -25.5t-71 -19.5t-100.5 -3t-162.5 23q-106 20 -166.5 76t-91.5 115q-37 68 -47 149q-10 47 -14 115zM395 420.5q-12 -37.5 13 -84.5q18 -31 37.5 -44t40 -13t41 10 t40.5 26q41 35 47.5 67t-30.5 97q-27 45 -69 39t-81 -35q-27 -25 -39 -62.5z" />
<glyph unicode="7" horiz-adv-x="907" d="M57 858l9 381l878 -57l-469 -1176l-416 8l330 858z" />
<glyph unicode="8" horiz-adv-x="1038" d="M37 332q16 111 49 179.5t72 109.5q-41 35 -63.5 74.5t-35.5 74.5q-14 39 -18 76q14 100 44 166.5t64.5 108.5t71.5 64t66 32q49 33 137 42t182 -3.5t178 -46t123 -87.5q35 -45 56 -100q16 -47 18 -112.5t-31 -143.5q-14 -39 -33.5 -69.5t-42.5 -59.5q8 -4 15.5 -12.5 t11.5 -12.5q35 -47 55 -102q16 -47 19.5 -112.5t-29.5 -143.5q-16 -47 -45 -85t-55.5 -66.5t-47 -45t-22.5 -16.5q-45 -12 -75.5 -24.5t-72.5 -18.5t-104.5 -2t-169.5 22q-109 16 -172 68.5t-96 106.5q-37 63 -49 139zM391 384q-14 -38 15 -85q20 -33 41.5 -46t45 -13t46 11 t47.5 28q47 33 54 66.5t-34 98.5q-33 45 -80 39.5t-92 -34.5q-29 -27 -43 -65zM413 880q-10 -28 11 -63q31 -47 64.5 -44t70.5 30q35 25 39 49.5t-27 71.5q-23 33 -57.5 29t-67.5 -27q-23 -18 -33 -46z" />
<glyph unicode="9" horiz-adv-x="1028" d="M37 272l184 142q29 -29 80 -49.5t104.5 -27.5t99.5 4t66 48l9 103q-47 -37 -110.5 -44.5t-128.5 9t-124 55.5t-96 96q-35 49 -53 109q-16 51 -19.5 120.5t29.5 155.5q16 49 44 91t53.5 73t46.5 49l20 17q43 12 73.5 25.5t70.5 19.5t100.5 3t162.5 -24q104 -20 166 -75.5 t92 -114.5q37 -68 47 -150q10 -47 15 -114q4 -59 -1 -149.5t-28 -217.5q-31 -129 -92 -227q-27 -43 -62.5 -83t-82 -70t-104.5 -47t-130 -13q-133 6 -214 50t-126 95t-64.5 94t-27.5 47zM377 885.5q-6 -31.5 31 -97.5q27 -45 68.5 -39t80.5 35q27 25 39 63t-12 85 q-18 31 -38 44t-40.5 13t-41 -10t-40.5 -27q-41 -35 -47 -66.5z" />
<glyph unicode=":" horiz-adv-x="598" d="M78 995q0 43 18.5 87t48 79t68.5 57.5t82 22.5q86 0 137 -43t51 -129q0 -43 -13 -86t-37.5 -77t-59.5 -55.5t-78 -21.5t-82 9.5t-68.5 30t-48 52t-18.5 74.5zM106 240q0 43 13.5 86t38 76.5t59.5 55t78 21.5t82 -9t68.5 -29.5t48 -52.5t18.5 -75t-18.5 -87t-48 -78.5 t-68.5 -57t-82 -22.5q-86 0 -137.5 43t-51.5 129z" />
<glyph unicode=";" horiz-adv-x="598" d="M78 995q0 43 18.5 87t48 79t68.5 57.5t82 22.5q86 0 137 -43t51 -129q0 -43 -13 -86t-37.5 -77t-59.5 -55.5t-78 -21.5t-82 9.5t-68.5 30t-48 52t-18.5 74.5zM88 244q0 43 13.5 86t38 76.5t59 55t77.5 21.5t82 -9t69 -29.5t48.5 -52.5t18.5 -75q0 -37 -13 -73 q-20 -53 -51 -103.5t-68.5 -94.5t-81.5 -74.5t-90 -45.5q27 86 35 150q-63 10 -100 53t-37 115z" />
<glyph unicode="=" horiz-adv-x="817" d="M125 647l22 381l512 -16l25 -348zM147 563l537 -4l-86 -352l-416 -23z" />
<glyph unicode="?" d="M27 1331q100 8 198 2q84 -4 176.5 -22.5t163.5 -63.5q92 -57 133 -124.5t51.5 -126t3 -98.5t-11.5 -46q-57 -88 -108 -137t-87 -83t-53.5 -62.5t-5.5 -71.5l-364 -4q0 66 19.5 114.5t47 84.5t58.5 62.5t56.5 50t41.5 44t12 47.5q2 45 -23.5 65.5t-63.5 24.5t-82 -5 t-78.5 -22.5t-54 -27.5t-9.5 -21zM102 166q0 -86 51.5 -129t137.5 -43q43 0 82 22.5t68.5 57.5t48 79t18.5 87t-18.5 74.5t-48 52t-68.5 30t-82 9.5t-78 -22t-59.5 -55.5t-38 -76.5t-13.5 -86z" />
<glyph unicode="A" horiz-adv-x="1224" d="M23 27l315 1235l557 8l299 -1245l-391 -37l-49 245h-287l-47 -245zM535 551l147 6l-80 383z" />
<glyph unicode="B" horiz-adv-x="1118" d="M37 31l45 1226l530 21q92 -6 170 -37q33 -12 67 -32.5t62.5 -49.5t51 -65.5t32.5 -85.5q9 -47 9 -89q0 -33 -6 -63q-13 -66 -35 -113q-27 -55 -68 -98q43 -31 79 -65.5t60 -77.5q25 -44 33 -98q3 -22 3 -46q0 -37 -7 -82q-16 -96 -62.5 -149t-91.5 -80q-55 -31 -118 -37 q-211 6 -377 10q-72 2 -139.5 3.5t-120 3.5t-84.5 3zM416 272l186 7q33 2 68 12t43 59q-8 55 -29.5 85t-69.5 34l-186 14zM455 846l135 -4h7q43 0 61 22q20 24 32 82q-2 27 -13 45.5t-27.5 29.5t-35 17t-34.5 9l-119 -9z" />
<glyph unicode="C" horiz-adv-x="1202" d="M37 612q-5 45 -5 89q0 81 17 157q12 49 33.5 101.5t58.5 101.5t91.5 92t129.5 74q113 47 241 53q38 2 75 2q86 0 162 -10q127 -16 250 -51l-115 -379q-39 33 -90 53q-43 15 -101 23q-14 2 -28 2q-46 0 -97 -19q-37 -12 -71.5 -37.5t-62 -62.5t-41.5 -85q-9 -33 -9 -71 q0 -17 2 -35q25 -164 135 -192q22 -5 47 -5q99 0 240 89l264 -332q0 -2 -55 -37t-150 -69q-96 -34 -223 -52q-42 -6 -86 -6q-88 0 -184 23q-74 18 -132.5 52t-102.5 79t-75.5 95t-52.5 101q-51 117 -65 256z" />
<glyph unicode="D" horiz-adv-x="1116" d="M37 27l33 1280l583 -15q143 -12 229.5 -75.5t131.5 -159.5t57 -217q9 -91 9 -184q0 -31 -1 -62q-25 -180 -63.5 -293t-99.5 -177q-62 -64 -151 -86q-82 -21 -194 -20h-20l-258 5q-49 0 -95 1t-82 1t-58 1zM377 434q35 0 59 -2q23 -2 40.5 -3t19.5 -1q31 4 65.5 8 t68.5 22.5t60.5 57.5t40.5 113q-1 30 -1 60v31v8q0 42 -10 81q-11 43 -41 80t-93 65q-2 0 -31 1t-63 3q-41 2 -93 5z" />
<glyph unicode="E" horiz-adv-x="1009" d="M27 8l47 1247l860 7q-6 -100 -10 -181q-2 -35 -3 -66.5t-2 -57t-1 -39.5v-15l-426 -2v-113l317 5l-29 -308l-303 -10l-6 -98q131 2 236 4q45 0 87 1t75.5 2t54.5 1h22l6 -369z" />
<glyph unicode="F" horiz-adv-x="1161" d="M84 31l80 1183l921 46q6 -86 13 -154q2 -29 4 -56.5t3 -49t1 -34.5v-12l-24 -2q-23 -2 -61 -7t-85 -12t-96 -13q-117 -16 -265 -37l-6 -154l301 -10l-32 -209l-277 -4l19 -447z" />
<glyph unicode="G" horiz-adv-x="1210" d="M51 590q0 78 3 163t33 174t97.5 178t196.5 177q142 57 270 57h9q131 -2 231 -28q117 -31 217 -90l-115 -379q-39 33 -90 53q-43 16 -101 23q-14 2 -28 2q-46 0 -96 -19q-37 -12 -72 -37.5t-62.5 -62.5t-41.5 -85q-8 -32 -8 -68q0 -18 2 -38q18 -121 84 -168 q40 -29 96 -29q34 0 74 11l-21 201q25 4 53 10q25 4 55.5 10t65.5 12l176 33l80 -518q-27 -18 -88 -54t-149 -67t-200 -42q-29 -3 -60 -3q-85 0 -179 23q-74 18 -132 51t-103 76t-77 91t-52 97q-53 113 -68 246z" />
<glyph unicode="H" horiz-adv-x="1208" d="M80 6l70 1270l368 -33l-4 -457l195 -2l2 480l389 -35l51 -1225l-442 -10l8 498h-203l-22 -492z" />
<glyph unicode="I" horiz-adv-x="587" d="M51 6l74 1243l373 23l6 -1266h-453z" />
<glyph unicode="J" horiz-adv-x="980" d="M39 389q-1 15 -1 23t1 8l315 47q-3 -11 -3 -21q0 -26 17 -52q25 -36 60 -48q13 -4 25 -4q21 0 41 14q32 21 38 101l41 815l373 -23l-57 -823q-14 -113 -64 -201q-20 -37 -50 -73.5t-71.5 -65.5t-95 -47.5t-123.5 -20.5h-14q-104 0 -175 27q-77 29 -127 73t-76.5 96 t-39 98t-14.5 77z" />
<glyph unicode="K" horiz-adv-x="1075" d="M51 6l6 1266l373 -23l12 -284l351 313q76 -82 135 -150q25 -29 49 -56.5t42.5 -49t28.5 -34.5l11 -13l-426 -377l448 -344q-76 -80 -133 -143q-25 -27 -48 -52.5t-41.5 -46t-29 -33t-8.5 -12.5l-325 234l8 -195h-453z" />
<glyph unicode="L" horiz-adv-x="952" d="M96 1296l402 -24l41 -877l313 -8l55 -371l-784 -2z" />
<glyph unicode="M" horiz-adv-x="1447" d="M80 4l51 1225l389 35l205 -488l201 467l368 33l70 -1270l-442 19l8 467l-94 -302l-209 7l-113 295l-8 -474z" />
<glyph unicode="N" horiz-adv-x="1179" d="M51 6l70 1270l368 -33l209 -526l-16 547l389 -35l51 -1225l-442 -10l-234 594l17 -588z" />
<glyph unicode="O" horiz-adv-x="1388" d="M37 612q-5 45 -5 89q0 81 17 157q12 49 33.5 101.5t58.5 101.5t91.5 92t129.5 74q196 86 348 95q28 2 55 2q118 0 211 -33q114 -40 192.5 -115.5t127.5 -155.5q35 -82 54 -184q13 -74 13 -172v-37q-3 -121 -44 -267q-25 -84 -59.5 -136t-67.5 -80.5t-56.5 -40 t-25.5 -11.5q-59 -23 -113.5 -48.5t-124.5 -40.5q-59 -13 -136 -13q-16 0 -32 1q-96 3 -239 38q-74 18 -132.5 52t-102.5 79t-75.5 95t-52.5 101q-51 117 -65 256zM487 616q12 -82 42 -127t72 -63q36 -15 79 -16q7 0 14 1q51 3 107 15q53 16 91 38.5t58 59.5q21 36 26 92 q1 16 1 36q0 45 -8 104q-8 61 -37 97q-29 35 -72 51q-37 13 -81 14h-15q-52 -2 -105 -17q-37 -12 -70.5 -36.5t-58 -60.5t-36.5 -83q-8 -32 -9 -69q0 -17 2 -36z" />
<glyph unicode="P" horiz-adv-x="1003" d="M51 6l64 1299l313 -21q115 -8 196 -28.5t137 -51t93 -71.5t68 -89q29 -61 41 -139q9 -60 9 -141v-16q-1 -91 -32 -201q-18 -63 -46 -103.5t-52.5 -63t-33.5 -26.5l-26 -12q-33 -12 -62.5 -25.5t-61 -24.5t-69.5 -18.5t-87 -7.5l-2 -258zM498 958l2 -372q12 2 23.5 4 t23.5 6q81 25 109 87q20 45 21 112q0 24 -3 51q-29 59 -77 84.5t-99 27.5z" />
<glyph unicode="Q" horiz-adv-x="1413" d="M31 626v27q0 105 14 183q18 102 53 184q49 80 128 155.5t192 115.5q93 33 211 33q27 0 55 -2q152 -9 348 -95q74 -31 128 -74t91 -92t59.5 -101.5t35.5 -101.5q17 -75 17 -155q0 -45 -5 -91q-4 -43 -12 -90q-8 -41 -24.5 -93t-43.5 -105l227 -166l-334 -260l-135 168 q-49 -25 -106 -37q-143 -35 -240 -38q-16 -1 -31 -1q-77 0 -135 13q-71 15 -125.5 40.5t-113.5 48.5q-2 0 -25.5 11.5t-56.5 40t-68 80.5t-59 136q-43 145 -45 266zM426 756q-2 -29 -2 -56q0 -93 26 -157q35 -82 144 -117q45 -10 86 -14q14 -1 27 -1q26 0 51 5l-105 133 l125 143l125 -92l4 16q2 19 2 37q0 36 -8 67q-12 48 -36.5 84t-58.5 60.5t-71 36.5q-30 6 -64 6h-17q-44 -2 -87 -17.5t-79.5 -48t-61.5 -85.5z" />
<glyph unicode="R" horiz-adv-x="987" d="M76 25l30 1245l304 14q36 2 69 2q71 0 129 -9q84 -13 143.5 -41t100.5 -68t72 -87q23 -37 39 -122q13 -68 13 -146q0 -20 -1 -40q-4 -101 -40 -200.5t-118 -162.5l182 -158l-231 -283l-285 238l-2 -199zM479 958l2 -311q10 2 19.5 4t19.5 4q68 23 92 74q18 38 17 94 q0 19 -2 41q-23 51 -64 71.5t-84 22.5z" />
<glyph unicode="S" horiz-adv-x="987" d="M76 59l22 277q53 -14 107 -19q20 -2 40 -2q28 -1 59 3q52 6 95 30q33 23 29 41.5t-31.5 40t-70.5 46t-86 59t-77 80t-44 106.5q0 -4 -6.5 16.5t-10.5 56.5q-2 20 -2 44q0 18 1 40q3 48 19.5 98t53.5 100t100 89q72 45 169.5 65.5t183.5 24.5q43 3 86 2q58 0 118 -4 l-22 -434q12 6 -8.5 20.5t-56.5 28.5q-34 13 -80 23q-32 7 -62 7q-12 0 -24 -1q-40 -3 -65 -25q-24 -20 -24 -62v-7q-4 -27 26 -49.5t78 -46t103.5 -51t105.5 -64.5t84 -86t36 -117q0 -59 -17 -113q-14 -47 -44 -97t-83 -87q-74 -53 -155.5 -76.5t-162.5 -28.5 q-31 -2 -61 -2q-47 0 -91 5q-72 8 -126 22q-56 15 -84 29q-24 12 -23 16q0 1 1 2z" />
<glyph unicode="T" horiz-adv-x="962" d="M57 979l11 299l806 41l9 -293l-170 -10l6 -1010h-453l62 987z" />
<glyph unicode="U" horiz-adv-x="1126" d="M37 1249l424 23l41 -762q10 -57 40 -82q26 -22 52 -22h8q31 4 54.5 32.5t23.5 81.5v756l389 -19l-27 -837q0 -33 -10 -78t-31.5 -93t-57.5 -94t-88 -81q-53 -36 -121 -54q-48 -13 -106 -12q-25 0 -53 2q-90 8 -157.5 29.5t-117.5 52.5t-85 68t-57 73q-53 86 -64 193z" />
<glyph unicode="V" horiz-adv-x="1200" d="M47 1257l426 19l105 -813l114 809l443 -23l-207 -1257l-641 -19z" />
<glyph unicode="W" horiz-adv-x="1439" d="M37 1249h383l51 -489l41 291l326 -7l45 -313l94 518l403 -41l-145 -1216l-447 33l-108 430l-135 -463l-373 -19z" />
<glyph unicode="X" horiz-adv-x="1216" d="M49 197l285 411l-285 441l369 262l192 -361l221 361l316 -199l-295 -504l295 -475l-316 -199l-221 330l-192 -330z" />
<glyph unicode="Y" horiz-adv-x="1118" d="M-6 1257l428 25l135 -514l152 539l391 -70l-283 -879l-8 -350l-498 17l-12 333z" />
<glyph unicode="Z" horiz-adv-x="1171" d="M35 848v416l1095 -37l-413 -856l348 14l-47 -379l-957 8l379 824z" />
<glyph unicode="a" horiz-adv-x="1224" d="M23 27l315 1235l557 8l299 -1245l-391 -37l-49 245h-287l-47 -245zM535 551l147 6l-80 383z" />
<glyph unicode="b" horiz-adv-x="1118" d="M37 31l45 1226l530 21q92 -6 170 -37q33 -12 67 -32.5t62.5 -49.5t51 -65.5t32.5 -85.5q9 -47 9 -89q0 -33 -6 -63q-13 -66 -35 -113q-27 -55 -68 -98q43 -31 79 -65.5t60 -77.5q25 -44 33 -98q3 -22 3 -46q0 -37 -7 -82q-16 -96 -62.5 -149t-91.5 -80q-55 -31 -118 -37 q-211 6 -377 10q-72 2 -139.5 3.5t-120 3.5t-84.5 3zM416 272l186 7q33 2 68 12t43 59q-8 55 -29.5 85t-69.5 34l-186 14zM455 846l135 -4h7q43 0 61 22q20 24 32 82q-2 27 -13 45.5t-27.5 29.5t-35 17t-34.5 9l-119 -9z" />
<glyph unicode="c" horiz-adv-x="1202" d="M37 612q-5 45 -5 89q0 81 17 157q12 49 33.5 101.5t58.5 101.5t91.5 92t129.5 74q113 47 241 53q38 2 75 2q86 0 162 -10q127 -16 250 -51l-115 -379q-39 33 -90 53q-43 15 -101 23q-14 2 -28 2q-46 0 -97 -19q-37 -12 -71.5 -37.5t-62 -62.5t-41.5 -85q-9 -33 -9 -71 q0 -17 2 -35q25 -164 135 -192q22 -5 47 -5q99 0 240 89l264 -332q0 -2 -55 -37t-150 -69q-96 -34 -223 -52q-42 -6 -86 -6q-88 0 -184 23q-74 18 -132.5 52t-102.5 79t-75.5 95t-52.5 101q-51 117 -65 256z" />
<glyph unicode="d" horiz-adv-x="1116" d="M37 27l33 1280l583 -15q143 -12 229.5 -75.5t131.5 -159.5t57 -217q9 -91 9 -184q0 -31 -1 -62q-25 -180 -63.5 -293t-99.5 -177q-62 -64 -151 -86q-82 -21 -194 -20h-20l-258 5q-49 0 -95 1t-82 1t-58 1zM377 434q35 0 59 -2q23 -2 40.5 -3t19.5 -1q31 4 65.5 8 t68.5 22.5t60.5 57.5t40.5 113q-1 30 -1 60v31v8q0 42 -10 81q-11 43 -41 80t-93 65q-2 0 -31 1t-63 3q-41 2 -93 5z" />
<glyph unicode="e" horiz-adv-x="1009" d="M27 8l47 1247l860 7q-6 -100 -10 -181q-2 -35 -3 -66.5t-2 -57t-1 -39.5v-15l-426 -2v-113l317 5l-29 -308l-303 -10l-6 -98q131 2 236 4q45 0 87 1t75.5 2t54.5 1h22l6 -369z" />
<glyph unicode="f" horiz-adv-x="1161" d="M84 31l80 1183l921 46q6 -86 13 -154q2 -29 4 -56.5t3 -49t1 -34.5v-12l-24 -2q-23 -2 -61 -7t-85 -12t-96 -13q-117 -16 -265 -37l-6 -154l301 -10l-32 -209l-277 -4l19 -447z" />
<glyph unicode="g" horiz-adv-x="1210" d="M51 590q0 78 3 163t33 174t97.5 178t196.5 177q142 57 270 57h9q131 -2 231 -28q117 -31 217 -90l-115 -379q-39 33 -90 53q-43 16 -101 23q-14 2 -28 2q-46 0 -96 -19q-37 -12 -72 -37.5t-62.5 -62.5t-41.5 -85q-8 -32 -8 -68q0 -18 2 -38q18 -121 84 -168 q40 -29 96 -29q34 0 74 11l-21 201q25 4 53 10q25 4 55.5 10t65.5 12l176 33l80 -518q-27 -18 -88 -54t-149 -67t-200 -42q-29 -3 -60 -3q-85 0 -179 23q-74 18 -132 51t-103 76t-77 91t-52 97q-53 113 -68 246z" />
<glyph unicode="h" horiz-adv-x="1208" d="M80 6l70 1270l368 -33l-4 -457l195 -2l2 480l389 -35l51 -1225l-442 -10l8 498h-203l-22 -492z" />
<glyph unicode="i" horiz-adv-x="587" d="M51 6l74 1243l373 23l6 -1266h-453z" />
<glyph unicode="j" horiz-adv-x="980" d="M39 389q-1 15 -1 23t1 8l315 47q-3 -11 -3 -21q0 -26 17 -52q25 -36 60 -48q13 -4 25 -4q21 0 41 14q32 21 38 101l41 815l373 -23l-57 -823q-14 -113 -64 -201q-20 -37 -50 -73.5t-71.5 -65.5t-95 -47.5t-123.5 -20.5h-14q-104 0 -175 27q-77 29 -127 73t-76.5 96 t-39 98t-14.5 77z" />
<glyph unicode="k" horiz-adv-x="1075" d="M51 6l6 1266l373 -23l12 -284l351 313q76 -82 135 -150q25 -29 49 -56.5t42.5 -49t28.5 -34.5l11 -13l-426 -377l448 -344q-76 -80 -133 -143q-25 -27 -48 -52.5t-41.5 -46t-29 -33t-8.5 -12.5l-325 234l8 -195h-453z" />
<glyph unicode="l" horiz-adv-x="952" d="M96 1296l402 -24l41 -877l313 -8l55 -371l-784 -2z" />
<glyph unicode="m" horiz-adv-x="1447" d="M80 4l51 1225l389 35l205 -488l201 467l368 33l70 -1270l-442 19l8 467l-94 -302l-209 7l-113 295l-8 -474z" />
<glyph unicode="n" horiz-adv-x="1179" d="M51 6l70 1270l368 -33l209 -526l-16 547l389 -35l51 -1225l-442 -10l-234 594l17 -588z" />
<glyph unicode="o" horiz-adv-x="1388" d="M37 612q-5 45 -5 89q0 81 17 157q12 49 33.5 101.5t58.5 101.5t91.5 92t129.5 74q196 86 348 95q28 2 55 2q118 0 211 -33q114 -40 192.5 -115.5t127.5 -155.5q35 -82 54 -184q13 -74 13 -172v-37q-3 -121 -44 -267q-25 -84 -59.5 -136t-67.5 -80.5t-56.5 -40 t-25.5 -11.5q-59 -23 -113.5 -48.5t-124.5 -40.5q-59 -13 -136 -13q-16 0 -32 1q-96 3 -239 38q-74 18 -132.5 52t-102.5 79t-75.5 95t-52.5 101q-51 117 -65 256zM487 616q12 -82 42 -127t72 -63q36 -15 79 -16q7 0 14 1q51 3 107 15q53 16 91 38.5t58 59.5q21 36 26 92 q1 16 1 36q0 45 -8 104q-8 61 -37 97q-29 35 -72 51q-37 13 -81 14h-15q-52 -2 -105 -17q-37 -12 -70.5 -36.5t-58 -60.5t-36.5 -83q-8 -32 -9 -69q0 -17 2 -36z" />
<glyph unicode="p" horiz-adv-x="1003" d="M51 6l64 1299l313 -21q115 -8 196 -28.5t137 -51t93 -71.5t68 -89q29 -61 41 -139q9 -60 9 -141v-16q-1 -91 -32 -201q-18 -63 -46 -103.5t-52.5 -63t-33.5 -26.5l-26 -12q-33 -12 -62.5 -25.5t-61 -24.5t-69.5 -18.5t-87 -7.5l-2 -258zM498 958l2 -372q12 2 23.5 4 t23.5 6q82 25 109 87q21 45 21 112q0 24 -3 51q-29 59 -77 84.5t-99 27.5z" />
<glyph unicode="q" horiz-adv-x="1413" d="M31 626v27q0 105 14 183q18 102 53 184q49 80 128 155.5t192 115.5q93 33 211 33q27 0 55 -2q152 -9 348 -95q74 -31 128 -74t91 -92t59.5 -101.5t35.5 -101.5q17 -75 17 -155q0 -45 -5 -91q-4 -43 -12 -90q-8 -41 -24.5 -93t-43.5 -105l227 -166l-334 -260l-135 168 q-49 -25 -106 -37q-143 -35 -240 -38q-16 -1 -31 -1q-77 0 -135 13q-71 15 -125.5 40.5t-113.5 48.5q-2 0 -25.5 11.5t-56.5 40t-68 80.5t-59 136q-43 145 -45 266zM426 756q-2 -29 -2 -56q0 -93 26 -157q35 -82 144 -117q45 -10 86 -14q14 -1 27 -1q26 0 51 5l-105 133 l125 143l125 -92l4 16q2 19 2 37q0 36 -8 67q-12 48 -36.5 84t-58.5 60.5t-71 36.5q-30 6 -64 6h-17q-44 -2 -87 -17.5t-79.5 -48t-61.5 -85.5z" />
<glyph unicode="r" horiz-adv-x="987" d="M76 25l30 1245l304 14q36 2 69 2q71 0 129 -9q84 -13 143.5 -41t100.5 -68t72 -87q23 -37 39 -122q13 -68 13 -146q0 -20 -1 -40q-4 -101 -40 -200.5t-118 -162.5l182 -158l-231 -283l-285 238l-2 -199zM479 958l2 -311q10 2 19.5 4t19.5 4q68 23 92 74q18 38 17 94 q0 19 -2 41q-23 51 -64 71.5t-84 22.5z" />
<glyph unicode="s" horiz-adv-x="987" d="M76 59l22 277q53 -14 107 -19q20 -2 40 -2q28 -1 59 3q52 6 95 30q33 23 29 41.5t-31.5 40t-70.5 46t-86 59t-77 80t-44 106.5q0 -4 -6.5 16.5t-10.5 56.5q-2 20 -2 44q0 18 1 40q3 48 19.5 98t53.5 100t100 89q72 45 169.5 65.5t183.5 24.5q43 3 86 2q58 0 118 -4 l-22 -434q12 6 -8.5 20.5t-56.5 28.5q-34 13 -80 23q-32 7 -62 7q-12 0 -24 -1q-40 -3 -65 -25q-24 -20 -24 -62v-7q-4 -27 26 -49.5t78 -46t103.5 -51t105.5 -64.5t84 -86t36 -117q0 -59 -17 -113q-14 -47 -44 -97t-83 -87q-74 -53 -155.5 -76.5t-162.5 -28.5 q-31 -2 -61 -2q-47 0 -91 5q-72 8 -126 22q-56 15 -84 29q-24 12 -23 16q0 1 1 2z" />
<glyph unicode="t" horiz-adv-x="962" d="M57 979l11 299l806 41l9 -293l-170 -10l6 -1010h-453l62 987z" />
<glyph unicode="u" horiz-adv-x="1126" d="M37 1249l424 23l41 -762q10 -57 40 -82q26 -22 52 -22h8q31 4 54.5 32.5t23.5 81.5v756l389 -19l-27 -837q0 -33 -10 -78t-31.5 -93t-57.5 -94t-88 -81q-53 -36 -121 -54q-48 -13 -106 -12q-25 0 -53 2q-90 8 -157.5 29.5t-117.5 52.5t-85 68t-57 73q-53 86 -64 193z" />
<glyph unicode="v" horiz-adv-x="1200" d="M47 1257l426 19l105 -813l114 809l443 -23l-207 -1257l-641 -19z" />
<glyph unicode="w" horiz-adv-x="1439" d="M37 1249h383l51 -489l41 291l326 -7l45 -313l94 518l403 -41l-145 -1216l-447 33l-108 430l-135 -463l-373 -19z" />
<glyph unicode="x" horiz-adv-x="1216" d="M49 197l285 411l-285 441l369 262l192 -361l221 361l316 -199l-295 -504l295 -475l-316 -199l-221 330l-192 -330z" />
<glyph unicode="y" horiz-adv-x="1118" d="M-6 1257l428 25l135 -514l152 539l391 -70l-283 -879l-8 -350l-498 17l-12 333z" />
<glyph unicode="z" horiz-adv-x="1171" d="M35 848v416l1095 -37l-413 -856l348 14l-47 -379l-957 8l379 824z" />
<glyph unicode="&#xa9;" horiz-adv-x="1507" d="M61 656q0 130 50.5 255t150.5 226q100 100 225 150t255 50t255 -49t224 -147q98 -98 147 -223t49 -255.5t-50 -255t-150 -225.5q-100 -100 -225.5 -150t-255.5 -50t-255 49t-223 147t-147.5 223t-49.5 255zM280 642q0 -50 35 -85q33 -35 81 -35t81 35q35 35 35 85t-35 83 q-33 33 -81 33t-81 -33q-35 -33 -35 -83zM426 314.5q-4 -21.5 3 -49t28 -48.5q57 -59 136 -81.5t165 -12.5t172 52t160 116t116.5 160t52 172t-14 163.5t-81.5 137.5q-23 29 -49.5 35t-45.5 -2.5t-25 -26.5t14 -41q115 -115 109.5 -250t-150.5 -283q-147 -147 -279.5 -140 t-247.5 124q-29 16 -44 6t-19 -31.5zM635 628q0 -50 33 -83q35 -35 84 -35t84 35q35 33 34.5 83t-34.5 83q-35 35 -84.5 34.5t-83.5 -34.5q-33 -33 -33 -83zM682 1029q0 -48 33 -81q35 -35 83 -35t83 35q35 33 34.5 81t-34.5 81q-35 35 -83 35t-83 -35q-33 -33 -33 -81z" />
<glyph unicode="&#xad;" d="M147 766l521 18l-31 -405l-455 8z" />
<glyph unicode="&#x2000;" horiz-adv-x="741" />
<glyph unicode="&#x2001;" horiz-adv-x="1483" />
<glyph unicode="&#x2002;" horiz-adv-x="741" />
<glyph unicode="&#x2003;" horiz-adv-x="1483" />
<glyph unicode="&#x2004;" horiz-adv-x="494" />
<glyph unicode="&#x2005;" horiz-adv-x="370" />
<glyph unicode="&#x2006;" horiz-adv-x="247" />
<glyph unicode="&#x2007;" horiz-adv-x="247" />
<glyph unicode="&#x2008;" horiz-adv-x="185" />
<glyph unicode="&#x2009;" horiz-adv-x="296" />
<glyph unicode="&#x200a;" horiz-adv-x="82" />
<glyph unicode="&#x2010;" d="M147 766l521 18l-31 -405l-455 8z" />
<glyph unicode="&#x2011;" d="M147 766l521 18l-31 -405l-455 8z" />
<glyph unicode="&#x2012;" d="M147 766l521 18l-31 -405l-455 8z" />
<glyph unicode="&#x2013;" horiz-adv-x="1301" d="M147 766l1024 18l-61 -405l-894 8z" />
<glyph unicode="&#x2014;" horiz-adv-x="2325" d="M147 766l2048 18l-122 -405l-1788 8z" />
<glyph unicode="&#x202f;" horiz-adv-x="296" />
<glyph unicode="&#x205f;" horiz-adv-x="370" />
<glyph unicode="&#x25fc;" horiz-adv-x="1310" d="M0 0v1311h1311v-1311h-1311z" />
</font>
</defs>
</svg>
